# xmcd
#
# Track frame offsets:
#	150
#	14772
#	47656
#	77927
#	105198
#
# Disc length: 1935 seconds
#
# Revision: 0
# Processed by: cddbd v1.5.1PL2 Copyright (c) Steve Scherf et al.
# Submitted via: dBpowerAMP V4.0
#
DISCID=34078d05
DTITLE=Mathias Ware feat Rob Taylor - Hey Little Girl
DYEAR=2001
DGENRE=Dance
TTITLE0=Hey Little Girl (Radio Edit)
TTITLE1=Hey Little Girl (Banks and Sullivan Club Mix)
TTITLE2=Hey Little Girl (4 Strings Remix)
TTITLE3=Hey Little Girl (Club Version)
TTITLE4=Hey Little Girl (Pascal F.E.O.S Mix)
EXTD=
EXTT0=
EXTT1=
EXTT2=
EXTT3=
EXTT4=
PLAYORDER=
